<svg width="35" height="31" viewBox="0 0 35 31" fill="none" xmlns="http://www.w3.org/2000/svg">
<path id="Vector" d="M29.3422 0C28.8518 0 28.385 0.196154 27.9927 0.542308L27.0537 1.335L32.5696 6.20192L33.4693 5.37346C34.2539 4.68115 34.2539 3.64962 33.4693 2.95731L30.731 0.541154C30.3387 0.195 29.8326 0 29.3422 0ZM26.1541 2.02038L24.7234 3.06692L30.6081 8.25923L31.9157 7.10538L26.1541 2.02038ZM23.9467 3.89538L12.1382 14.2085C12.0784 14.252 12.0233 14.3003 11.9734 14.3527L11.8924 14.3885C11.7497 14.5327 11.6512 14.7066 11.606 14.8938L10.0119 19.8335C9.94357 20.029 9.93697 20.2372 9.9928 20.4358C10.0486 20.6344 10.1648 20.8158 10.3287 20.9604C10.4927 21.1051 10.6983 21.2076 10.9233 21.2568C11.1484 21.3061 11.3844 21.3003 11.606 21.24L17.2042 19.8335C17.3901 19.7946 17.5637 19.7193 17.7122 19.6133C17.8606 19.5072 17.9802 19.3731 18.0621 19.2208L29.6691 9.08769L27.4617 6.99577V7.10423L25.9082 5.73346H26.0311L23.9467 3.89538ZM1.06336 4.68808C0.760403 4.73892 0.48756 4.88259 0.293023 5.09373C0.0984853 5.30486 -0.00522788 5.56986 0.000202955 5.84192V28.9188C0.000202955 29.2249 0.137977 29.5184 0.383217 29.7347C0.628457 29.9511 0.961074 30.0727 1.3079 30.0727H27.4617C27.8086 30.0727 28.1412 29.9511 28.3864 29.7347C28.6317 29.5184 28.7694 29.2249 28.7694 28.9188V16.2265C28.7694 15.9205 28.6317 15.627 28.3864 15.4106C28.1412 15.1943 27.8086 15.0727 27.4617 15.0727C27.1149 15.0727 26.7823 15.1943 26.5371 15.4106C26.2918 15.627 26.1541 15.9205 26.1541 16.2265V27.765H2.61559V6.99577H15.6925C16.0393 6.99577 16.372 6.8742 16.6172 6.65782C16.8624 6.44143 17.0002 6.14794 17.0002 5.84192C17.0002 5.5359 16.8624 5.24242 16.6172 5.02603C16.372 4.80964 16.0393 4.68808 15.6925 4.68808H1.3079C1.26694 4.68638 1.22592 4.68638 1.18497 4.68808C1.14402 4.68638 1.103 4.68638 1.06205 4.68808H1.06336ZM13.8957 16.0108L15.6938 16.1181L15.8167 17.8488L14.0187 18.3173L13.3243 17.7058L13.8957 16.0108Z" fill="black"/>
</svg>
