<svg width="39" height="28" viewBox="0 0 39 28" fill="none" xmlns="http://www.w3.org/2000/svg">
<path id="Vector" d="M36 0H3C2.20435 0 1.44129 0.263392 0.87868 0.732233C0.31607 1.20107 0 1.83696 0 2.5V25C0 25.663 0.31607 26.2989 0.87868 26.7678C1.44129 27.2366 2.20435 27.5 3 27.5H36C36.7957 27.5 37.5587 27.2366 38.1213 26.7678C38.6839 26.2989 39 25.663 39 25V2.5C39 1.83696 38.6839 1.20107 38.1213 0.732233C37.5587 0.263392 36.7957 0 36 0ZM36 2.5V18.5547L31.1119 14.4828C30.8333 14.2506 30.5025 14.0664 30.1385 13.9407C29.7745 13.8151 29.3843 13.7504 28.9903 13.7504C28.5963 13.7504 28.2061 13.8151 27.8421 13.9407C27.4781 14.0664 27.1473 14.2506 26.8688 14.4828L23.1188 17.6078L14.8688 10.7328C14.3062 10.2643 13.5434 10.0012 12.7481 10.0012C11.9528 10.0012 11.1901 10.2643 10.6275 10.7328L3 17.0891V2.5H36ZM3 20.625L12.75 12.5L27.75 25H3V20.625ZM36 25H31.9931L25.2431 19.375L28.9931 16.25L36 22.0906V25ZM22.5 9.375C22.5 9.00416 22.632 8.64165 22.8792 8.33331C23.1264 8.02496 23.4778 7.78464 23.889 7.64273C24.3001 7.50081 24.7525 7.46368 25.189 7.53603C25.6254 7.60837 26.0263 7.78695 26.341 8.04917C26.6557 8.3114 26.87 8.64549 26.9568 9.0092C27.0436 9.37292 26.999 9.74992 26.8287 10.0925C26.6584 10.4351 26.37 10.728 26 10.934C25.63 11.14 25.195 11.25 24.75 11.25C24.1533 11.25 23.581 11.0525 23.159 10.7008C22.7371 10.3492 22.5 9.87228 22.5 9.375Z" fill="black"/>
</svg>
