<svg width="40" height="47" viewBox="0 0 40 47" fill="none" xmlns="http://www.w3.org/2000/svg">
<g id="ci:font">
<path id="Vector" d="M21.6667 35.25L13.3333 11.75L5 35.25M18.3333 27.4167H8.33333M35 35.25V29.375M35 29.375V23.5M35 29.375C35 30.9331 34.4732 32.4275 33.5355 33.5293C32.5979 34.631 31.3261 35.25 30 35.25C28.6739 35.25 27.4021 34.631 26.4645 33.5293C25.5268 32.4275 25 30.9331 25 29.375C25 27.8169 25.5268 26.3225 26.4645 25.2207C27.4021 24.119 28.6739 23.5 30 23.5C31.3261 23.5 32.5979 24.119 33.5355 25.2207C34.4732 26.3225 35 27.8169 35 29.375Z" stroke="black" stroke-width="2" stroke-linecap="round" stroke-linejoin="round"/>
</g>
</svg>
