<svg width="46" height="36" viewBox="0 0 46 36" fill="none" xmlns="http://www.w3.org/2000/svg">
<g id="fluent:color-24-regular">
<path id="Vector" d="M7.35805 8.787C12.9931 2.913 24.6656 1.2045 32.9724 5.247C41.1757 9.237 44.1926 16.9125 40.8307 24.1125C37.6586 30.912 29.3001 33.6045 23.276 30.1845C21.0201 28.9035 20.1441 27.297 19.7225 24.6885L19.5193 23.208L19.4331 22.611C19.1973 21.21 18.837 20.583 18.0818 20.253C17.0564 19.806 16.3721 19.7955 15.0247 20.2035L14.352 20.4225L14.0089 20.5395C12.0654 21.1995 10.7736 21.432 9.13864 21.1635L8.7553 21.093L8.44097 21.0225C3.09539 19.7265 2.3038 14.052 7.35805 8.787ZM9.24405 18.861L9.4798 18.9165L9.73664 18.9615C10.5781 19.092 11.2968 18.984 12.4909 18.5985L13.6447 18.213C15.9486 17.4735 17.4493 17.403 19.4829 18.288C21.2405 19.056 21.9266 20.235 22.2755 22.278L22.3771 22.9665L22.4825 23.7645L22.5726 24.3975C22.9022 26.439 23.5021 27.5325 24.9646 28.3635C29.325 30.8385 35.5714 28.827 38.1321 23.34C41.0377 17.112 38.4656 10.569 31.4544 7.1565C24.4106 3.7305 14.398 5.1975 9.65614 10.137C5.67905 14.2815 6.1678 18.057 9.24405 18.861ZM30.7586 15.87C30.6681 15.63 30.6398 15.3783 30.6755 15.1296C30.7112 14.881 30.8101 14.6404 30.9665 14.4222C31.1228 14.2039 31.3334 14.0123 31.5858 13.8587C31.8382 13.7052 32.1273 13.5927 32.4361 13.5279C32.745 13.4631 33.0672 13.4474 33.3839 13.4816C33.7007 13.5158 34.0054 13.5993 34.2803 13.7271C34.5551 13.8549 34.7945 14.0245 34.9843 14.2258C35.1741 14.4272 35.3105 14.6563 35.3855 14.8995C35.5319 15.375 35.4352 15.8764 35.116 16.2968C34.7968 16.7173 34.2802 17.0234 33.6766 17.15C33.073 17.2767 32.43 17.2137 31.8849 16.9745C31.3398 16.7354 30.9356 16.339 30.7586 15.87ZM31.7055 21.102C31.541 20.6216 31.6272 20.1098 31.9449 19.6791C32.2627 19.2485 32.786 18.9342 33.3998 18.8055C34.0136 18.6768 34.6676 18.7442 35.2179 18.9929C35.7682 19.2416 36.1698 19.6511 36.3342 20.1315C36.4156 20.3694 36.4364 20.6174 36.3953 20.8616C36.3542 21.1057 36.2521 21.3411 36.0948 21.5544C35.9375 21.7676 35.728 21.9545 35.4784 22.1044C35.2287 22.2543 34.9438 22.3643 34.6399 22.428C34.336 22.4917 34.019 22.508 33.707 22.4758C33.3951 22.4437 33.0943 22.3638 32.8218 22.2406C32.5493 22.1175 32.3105 21.9536 32.1189 21.7582C31.9274 21.5628 31.7869 21.3399 31.7055 21.102ZM26.9675 11.3655C26.803 10.8851 26.8892 10.3733 27.2069 9.94263C27.5247 9.51195 28.048 9.1977 28.6618 9.069C29.2756 8.94031 29.9296 9.00771 30.4799 9.25638C31.0302 9.50505 31.4318 9.91463 31.5962 10.395C31.6776 10.6329 31.6984 10.8809 31.6573 11.1251C31.6162 11.3692 31.5141 11.6046 31.3568 11.8179C31.1995 12.0311 30.99 12.218 30.7404 12.3679C30.4907 12.5178 30.2058 12.6278 29.9019 12.6915C29.2881 12.8202 28.6341 12.7528 28.0838 12.5041C27.8113 12.381 27.5725 12.2171 27.3809 12.0217C27.1894 11.8263 27.0489 11.6034 26.9675 11.3655ZM26.9138 24.8625C26.8233 24.6225 26.795 24.3708 26.8307 24.1221C26.8664 23.8735 26.9653 23.6329 27.1216 23.4147C27.278 23.1964 27.4885 23.0048 27.7409 22.8512C27.9933 22.6977 28.2825 22.5852 28.5913 22.5204C28.9001 22.4556 29.2224 22.4399 29.5391 22.4741C29.8558 22.5083 30.1606 22.5918 30.4355 22.7196C30.7103 22.8474 30.9497 23.017 31.1395 23.2183C31.3293 23.4197 31.4657 23.6488 31.5406 23.892C31.6871 24.3675 31.5904 24.8689 31.2712 25.2893C30.9519 25.7098 30.4354 26.0159 29.8318 26.1425C29.2282 26.2692 28.5852 26.2062 28.0401 25.967C27.495 25.7279 27.0908 25.3316 26.9138 24.8625ZM20.2112 9.9075C20.1269 9.66889 20.1037 9.41956 20.1431 9.17391C20.1825 8.92826 20.2837 8.69114 20.4408 8.47626C20.5979 8.26137 20.8079 8.07296 21.0585 7.92191C21.3092 7.77085 21.5956 7.66014 21.9012 7.59616C22.2068 7.53219 22.5256 7.51621 22.8391 7.54915C23.1526 7.5821 23.4547 7.66332 23.728 7.78811C24.0012 7.91291 24.2401 8.07882 24.431 8.27627C24.6218 8.47372 24.7608 8.69879 24.84 8.9385C24.998 9.41728 24.908 9.92554 24.5895 10.3526C24.271 10.7797 23.7498 11.091 23.1394 11.2188C22.529 11.3466 21.8788 11.2805 21.3304 11.0349C20.782 10.7893 20.3797 10.3841 20.2112 9.9075Z" fill="black"/>
</g>
</svg>
