<svg width="38" height="38" viewBox="0 0 38 38" fill="none" xmlns="http://www.w3.org/2000/svg">
<g id="gridicons:quote">
<path id="Vector" d="M17.7207 24.9486C17.7207 23.5553 17.3565 22.3868 16.6282 21.4383C16.112 20.786 15.4122 20.3569 14.5271 20.1527C13.6563 19.95 12.8329 19.9358 12.0888 20.1083C11.8354 18.6042 12.2471 17.0113 13.2921 15.3235C14.3371 13.6373 15.6909 12.3674 17.3423 11.5188L14.839 7.91667C13.5724 8.54367 12.369 9.3385 11.2607 10.2996C10.1365 11.2607 9.13902 12.3658 8.25235 13.6151C7.36569 14.8643 6.70069 16.2751 6.27319 17.8743C5.84569 19.4734 5.72694 21.1043 5.93119 22.7826C6.19719 24.9993 6.91285 26.7726 8.07819 28.0868C9.24194 29.4183 10.6939 30.0833 12.4292 30.0833C13.9571 30.0833 15.2254 29.6242 16.2292 28.6932C17.2235 27.7812 17.7175 26.5319 17.7175 24.9438L17.7207 24.9486ZM32.167 24.9486C32.167 23.5553 31.8029 22.3868 31.0745 21.4383C30.5584 20.7733 29.8554 20.3427 28.9734 20.1447C28.0868 19.9484 27.2745 19.9389 26.5351 20.1099C26.2818 18.6216 26.6776 17.0224 27.7258 15.3283C28.7708 13.6499 30.1214 12.3833 31.7728 11.5283L29.2759 7.91667C28.0092 8.54367 26.8138 9.3385 25.6975 10.2996C24.5631 11.2749 23.5556 12.3888 22.6987 13.6151C21.8184 14.8659 21.1629 16.2751 20.7354 17.8743C20.3028 19.4725 20.1861 21.1397 20.3918 22.7826C20.6546 24.9993 21.3671 26.7726 22.5293 28.0868C23.6899 29.4073 25.137 30.0691 26.8724 30.0691C28.4034 30.0691 29.6717 29.6099 30.6755 28.6805C31.6683 27.7685 32.167 26.5193 32.167 24.9312V24.9486Z" fill="white"/>
</g>
</svg>
